<?xml version="1.0" standalone="no"?>
<!DOCTYPE svg PUBLIC "-//W3C//DTD SVG 20010904//EN"
 "http://www.w3.org/TR/2001/REC-SVG-20010904/DTD/svg10.dtd">
<svg version="1.0" xmlns="http://www.w3.org/2000/svg"
 width="700.000000pt" height="700.000000pt" viewBox="0 0 700.000000 700.000000"
 preserveAspectRatio="xMidYMid meet">
<metadata>
Created by potrace 1.14, written by Peter Selinger 2001-2017
</metadata>
<g transform="translate(0.000000,700.000000) scale(0.100000,-0.100000)"
fill="#000000" stroke="none">
<path d="M0 3500 l0 -3500 3500 0 3500 0 0 3500 0 3500 -3500 0 -3500 0 0
-3500z m2658 1688 l-3 -843 -842 -3 -843 -2 0 845 0 845 845 0 845 0 -2 -842z
m482 722 l0 -120 120 0 120 0 0 -120 0 -120 120 0 120 0 0 120 0 120 120 0
120 0 0 120 0 120 120 0 120 0 0 -120 0 -120 -120 0 -120 0 0 -120 0 -120 120
0 120 0 0 -605 0 -606 -117 3 -118 3 -3 483 -2 482 -120 0 -120 0 0 -485 0
-485 -120 0 -120 0 0 245 0 245 -120 0 -120 0 -2 -242 -3 -243 -117 -3 -118
-3 0 246 0 245 120 0 120 0 0 120 0 120 -120 0 -120 0 0 480 0 480 120 0 120
0 0 -120z m2890 -725 l0 -845 -842 2 -843 3 -3 843 -2 842 845 0 845 0 0 -845z
m-4580 -1205 l0 -120 240 0 240 0 0 120 0 120 365 0 366 0 -3 -117 -3 -118
-362 -3 -363 -2 0 -120 0 -120 485 0 485 0 0 -240 0 -240 -120 0 -120 0 0
-120 0 -120 -125 0 -125 0 0 120 0 120 -120 0 -120 0 0 120 0 120 -120 0 -120
0 0 -120 0 -120 -120 0 -120 0 0 -120 0 -120 -120 0 -120 0 0 120 0 120 120 0
120 0 0 240 0 240 -120 0 -120 0 0 120 0 120 -120 0 -120 0 0 -480 0 -480
-120 0 -120 0 0 600 0 600 240 0 240 0 0 -120z m2650 0 l0 -120 -240 0 -240 0
0 -240 0 -240 240 0 240 0 0 120 0 120 365 0 365 0 0 120 0 120 -120 0 -120 0
0 120 0 120 120 0 120 0 0 -120 0 -120 120 0 120 0 0 120 0 120 480 0 480 0 0
-120 0 -120 -240 0 -240 0 0 -120 0 -120 120 0 120 0 0 -120 0 -120 -120 0
-120 0 0 120 0 120 -120 0 -120 0 0 -120 0 -120 -482 -2 -483 -3 -3 -117 -3
-118 -119 0 -120 0 0 -120 0 -120 245 0 245 0 0 120 0 120 360 0 360 0 0 -120
0 -120 120 0 120 0 0 120 0 120 120 0 120 0 0 -365 0 -365 120 0 120 0 0 -120
0 -120 -120 0 -120 0 0 120 0 120 -120 0 -120 0 0 125 0 126 -117 -3 -118 -3
-3 -122 -3 -123 -239 0 -240 0 0 -120 0 -120 240 0 240 0 0 -120 0 -120 360 0
360 0 0 -120 0 -120 -360 0 -360 0 0 -120 0 -120 -485 0 -485 0 0 -120 0 -119
-117 -3 -118 -3 -3 -117 -3 -118 -119 0 -120 0 0 120 0 120 -120 0 -120 0 0
240 0 240 -120 0 -120 0 0 240 0 240 120 0 120 0 0 120 0 120 -120 0 -120 0 0
125 0 125 -240 0 -240 0 0 120 0 120 240 0 240 0 0 -120 0 -120 120 0 120 0 0
120 0 120 120 0 120 0 0 120 0 120 -360 0 -360 0 0 240 0 240 120 0 120 0 0
120 0 120 120 0 120 0 0 120 0 120 240 0 240 0 0 -120z m-1442 -2167 l2 -843
-845 0 -845 0 0 845 0 845 843 -2 842 -3 3 -842z m482 357 l0 -240 -120 0
-120 0 0 240 0 240 120 0 120 0 0 -240z m240 -960 l0 -240 -240 0 -240 0 0
240 0 240 240 0 240 0 0 -240z m1930 -120 l0 -120 -120 0 -120 0 0 120 0 120
120 0 120 0 0 -120z m720 0 l0 -120 -120 0 -120 0 0 113 c0 63 3 117 7 120 3
4 57 7 120 7 l113 0 0 -120z"/>
<path d="M1210 5190 l0 -600 600 0 600 0 0 600 0 600 -600 0 -600 0 0 -600z
m960 0 l0 -360 -360 0 -360 0 0 360 0 360 360 0 360 0 0 -360z"/>
<path d="M3140 5190 l0 -120 120 0 120 0 0 120 0 120 -120 0 -120 0 0 -120z"/>
<path d="M4590 5190 l0 -600 600 0 600 0 0 600 0 600 -600 0 -600 0 0 -600z
m960 0 l0 -360 -360 0 -360 0 0 360 0 360 360 0 360 0 0 -360z"/>
<path d="M2410 3260 l0 -120 125 0 126 0 -3 118 -3 117 -122 3 -123 3 0 -121z"/>
<path d="M3860 2780 l0 -120 -120 0 -120 0 0 -125 0 -125 240 0 240 0 0 245 0
245 -120 0 -120 0 0 -120z"/>
<path d="M4590 2781 l0 -120 -122 -3 -123 -3 -3 -242 -2 -243 -240 0 -240 0 0
-120 0 -120 -120 0 -120 0 0 -120 0 -120 120 0 120 0 0 -120 0 -120 240 0 240
0 0 120 0 120 -120 0 -120 0 0 120 0 120 365 0 365 0 0 120 0 120 -120 0 -120
0 0 245 0 245 120 0 121 0 -3 118 -3 117 -117 3 -118 3 0 -120z"/>
<path d="M5070 1810 l0 -120 120 0 120 0 0 120 0 120 -120 0 -120 0 0 -120z"/>
<path d="M1210 1810 l0 -600 600 0 600 0 0 600 0 600 -600 0 -600 0 0 -600z
m960 0 l0 -360 -360 0 -360 0 0 360 0 360 360 0 360 0 0 -360z"/>
</g>
</svg>
